# xmcd
#
# Track frame offsets:
#	150
#	13450
#	25247
#	37564
#	49812
#	60883
#	73649
#	85066
#	96931
#	108212
#	121850
#	135116
#	148454
#	161609
#	172879
#	183068
#	194709
#	206706
#	218076
#	230576
#	242667
#	255449
#
# Disc length: 3571 seconds
#
# Revision: 1
# Processed by: cddbd v1.5.1PL2 Copyright (c) Steve Scherf et al.
# Submitted via: audiograbber 1.83.01
#
DISCID=270df116
DTITLE=Lowell Fulson - The Chronological: 1949 =1951
DYEAR=1900
DGENRE=R&B
TTITLE0=Cold Hearted Woman
TTITLE1=Mama Bring Your Clothes Back Home
TTITLE2=Jimmy's Blues
TTITLE3=Ain't Nobody's Business
TTITLE4=Low Society Blues
TTITLE5=Blue Shadows
TTITLE6=Back Home Blues
TTITLE7=Baby Won't You Jump With Me
TTITLE8=Come Back Baby
TTITLE9=Country Boy
TTITLE10=Rainy Day
TTITLE11=Miss Lillie Brown
TTITLE12=Sinner's Prayer
TTITLE13=Lonesome Christmas - Part 1
TTITLE14=Lonesome Christmas - Part 2
TTITLE15=I'm a Night Owl - Part 1
TTITLE16=I'm a Night Owl - Part 2
TTITLE17=Blues with a Feeling
TTITLE18=Let Me Ride Your Little Automobile
TTITLE19=Why Can't You cry for Me
TTITLE20=Let's Live Right
TTITLE21=Guitar Shuffle
EXTD=
EXTT0=
EXTT1=
EXTT2=
EXTT3=
EXTT4=
EXTT5=
EXTT6=
EXTT7=
EXTT8=
EXTT9=
EXTT10=
EXTT11=
EXTT12=
EXTT13=
EXTT14=
EXTT15=
EXTT16=
EXTT17=
EXTT18=
EXTT19=
EXTT20=
EXTT21=
PLAYORDER=
